#!OML:ASF G:\JayActor3\Patient Classification 1\Patient 1\Session 2\male.ASF
:FULLY-SPECIFIED
:DEGREES
2253
root 11.7901 16.5571 -7.62981 137.212 -100.755 -504.683
lowerback 3.64336 -0.727371 -8.13403
upperback -3.18813 -1.65576 -2.39311
thorax -5.23686 -0.594965 2.19187
lowerneck -2.49433 -2.79221 -3.21394
upperneck 5.41217 -4.14401 8.03518
head 2.44957 -1.96463 3.0733
rclavicle 2.03754e-014 4.96962e-014
rhumerus -20.5852 30.8597 -78.5968
rradius 128.516
rwrist -33.6396
rhand -41.5346 25.3437
rfingers 7.12502
rthumb -14.4468 -4.13342
lclavicle 2.03754e-014 4.96962e-014
lhumerus -59.1058 -72.4019 139.428
lradius 90.8113
lwrist 40.0329
lhand -18.1205 13.4348
lfingers 7.12502
lthumb 8.15405 43.2575
rfemur -22.156 8.5947 15.6006
rtibia 45.3477
rfoot -10.9766 -0.497335
rtoes 20.4976
lfemur 15.6388 8.044 -23.9962
ltibia 38.9758
lfoot 10.078 2.0606
ltoes -14.63
2254
root 11.5777 16.5672 -7.64904 140.946 -100.302 -508.969
lowerback 4.17789 -0.661455 -7.1005
upperback -3.10745 -1.52977 -2.21332
thorax -5.47918 -0.555927 1.80556
lowerneck -2.48765 -2.88346 -3.27214
upperneck 5.53681 -4.27164 8.00914
head 2.49916 -2.02844 3.07178
rclavicle -1.49089e-014 7.95139e-016
rhumerus -20.3984 30.809 -78.4604
rradius 128.393
rwrist -33.5456
rhand -41.5324 25.3087
rfingers 7.12502
rthumb -14.4447 -4.16856
lclavicle -1.49089e-014 7.95139e-016
lhumerus -58.5809 -72.3723 138.868
lradius 90.6921
lwrist 39.9787
lhand -17.9918 13.5487
lfingers 7.12502
lthumb 8.27824 43.3665
rfemur -19.6244 10.0605 17.2488
rtibia 43.6659
rfoot -13.0152 -1.91337
rtoes 20.1708
lfemur 12.7028 8.63831 -22.296
ltibia 45.4348
lfoot 14.5335 3.23322
ltoes -8.6152
2255
root 11.3812 16.574 -7.66792 146.087 -99.7441 -514.699
lowerback 4.85384 -0.610295 -5.82899
upperback -2.99269 -1.39601 -1.94822
thorax -5.76684 -0.520701 1.37339
lowerneck -2.50263 -2.97565 -3.32184
upperneck 5.50784 -4.38848 7.98325
head 2.5005 -2.08788 3.06781
rclavicle 8.10048e-015 6.75868e-015
rhumerus -20.1541 30.7392 -78.2876
rradius 128.265
rwrist -33.5108
rhand -41.5597 25.2504
rfingers 7.12502
rthumb -14.471 -4.22505
lclavicle 8.10048e-015 6.75868e-015
lhumerus -57.7501 -72.2821 138.05
lradius 90.5305
lwrist 39.9267
lhand -17.948 13.6975
lfingers 7.12502
lthumb 8.32057 43.5136
rfemur -17.3211 11.3399 19.1585
rtibia 42.1661
rfoot -14.5104 -3.29244
rtoes 19.9156
lfemur 9.51389 9.12237 -20.4107
ltibia 52.0494
lfoot 19.1626 4.29034
ltoes -2.24907
2256
root 11.194 16.6023 -7.6831 153.011 -99.2168 -522.175
lowerback 5.56114 -0.599001 -4.34897
upperback -2.85739 -1.27591 -1.61564
thorax -6.05027 -0.501963 0.892218
lowerneck -2.51086 -3.06987 -3.36403
upperneck 5.30972 -4.49635 7.96831
head 2.44368 -2.14449 3.06559
rclavicle 1.91827e-014 4.13472e-014
rhumerus -19.89 30.6528 -78.0838
rradius 128.165
rwrist -33.5552
rhand -41.6226 25.1744
rfingers 7.12502
rthumb -14.5315 -4.29668
lclavicle 1.91827e-014 4.13472e-014
lhumerus -56.74 -72.137 137.095
lradius 90.3556
lwrist 39.9063
lhand -18.0213 13.8587
lfingers 7.12502
lthumb 8.24973 43.6776
rfemur -15.1303 12.1687 21.2163
rtibia 40.7063
rfoot -15.492 -4.30472
rtoes 19.4681
lfemur 6.09697 9.48858 -18.4053
ltibia 58.6453
lfoot 23.2654 4.64942
ltoes 3.19475
2257
root 11.0226 16.6111 -7.69332 161.375 -98.8831 -530.977
lowerback 6.19787 -0.631545 -2.75555
upperback -2.7215 -1.17831 -1.25402
thorax -6.29251 -0.502575 0.37504
lowerneck -2.48884 -3.17329 -3.40021
upperneck 4.94648 -4.60641 7.96956
head 2.32703 -2.20438 3.0674
rclavicle 6.36111e-015 -1.07344e-014
rhumerus -19.6454 30.54 -77.8465
rradius 128.12
rwrist -33.6784
rhand -41.7047 25.1104
rfingers 7.12502
rthumb -14.6107 -4.35494
lclavicle 6.36111e-015 -1.07344e-014
lhumerus -55.7187 -71.9728 136.169
lradius 90.2035
lwrist 39.9252
lhand -18.2175 14.0065
lfingers 7.12502
lthumb 8.0604 43.8328
rfemur -13.2689 12.3979 23.2143
rtibia 39.3616
rfoot -16.0333 -4.81819
rtoes 18.8903
lfemur 2.29276 9.75279 -16.4334
ltibia 65.3045
lfoot 26.2659 4.05852
ltoes 7.044
2258
root 10.8593 16.6246 -7.6977 170.195 -98.8709 -540.084
lowerback 6.70025 -0.709 -1.16929
upperback -2.59834 -1.12018 -0.89674
thorax -6.47104 -0.526572 -0.142661
lowerneck -2.41453 -3.28109 -3.43381
upperneck 4.44313 -4.7156 7.99908
head 2.1559 -2.26634 3.07903
rclavicle 9.0944e-015 7.55382e-015
rhumerus -19.441 30.4071 -77.5766
rradius 128.132
rwrist -33.8423
rhand -41.7885 25.082
rfingers 7.12502
rthumb -14.6914 -4.37745
lclavicle 9.0944e-015 7.55382e-015
lhumerus -54.7858 -71.8271 135.373
lradius 90.1014
lwrist 39.9957
lhand -18.5111 14.1143
lfingers 7.12502
lthumb 7.77704 43.9513
rfemur -11.6501 12.0427 24.9892
rtibia 38.0111
rfoot -16.3176 -4.8457
rtoes 18.366
lfemur -1.82723 9.94253 -14.6304
ltibia 71.833
lfoot 27.9375 2.68982
ltoes 9.2381
2259
root 10.701 16.6449 -7.69793 178.032 -99.2114 -548.074
lowerback 7.07251 -0.825793 0.274916
upperback -2.49005 -1.11661 -0.568839
thorax -6.59069 -0.575039 -0.60736
lowerneck -2.31624 -3.38705 -3.48063
upperneck 3.87934 -4.82051 8.06254
head 1.96305 -2.32746 3.10598
rclavicle 1.07841e-014 -5.56597e-015
rhumerus -19.2868 30.2621 -77.2798
rradius 128.186
rwrist -34.0073
rhand -41.8441 25.0858
rfingers 7.12502
rthumb -14.745 -4.36977
lclavicle 1.07841e-014 -5.56597e-015
lhumerus -53.9697 -71.7226 134.735
lradius 90.0583
lwrist 40.0942
lhand -18.825 14.1685
lfingers 7.12502
lthumb 7.4741 44.0165
rfemur -10.2649 11.1687 26.4344
rtibia 36.7118
rfoot -16.4905 -4.46968
rtoes 17.7796
lfemur -6.2105 10.0919 -13.1106
ltibia 78.1742
lfoot 28.377 1.00176
ltoes 10.1546
